<svg width="588" height="411" viewBox="0 0 588 411" fill="none" xmlns="http://www.w3.org/2000/svg">
<path d="M107.755 146.441C108.359 140.656 106.998 139.814 101.71 142.366C95.3571 139.58 94.4423 141.301 95.8539 146.611C91.5671 150.441 91.8455 151.895 98.4986 152.893C101.364 158.758 102.928 157.966 105.677 152.893C112.1 151.563 112.608 150.162 107.755 146.441Z" stroke="#123324" stroke-opacity="0.1"/>
<path d="M39.9253 98.0895H37.2985" stroke="#123324" stroke-opacity="0.1"/>
<path d="M3.68176 98.7659C7.19679 98.7659 48.3887 101.543 53.2219 98.7659C58.055 95.9893 58.1451 87.8102 53.2219 85.1913C50.4246 83.7033 45.8622 84.5743 44.9835 85.1913C44.1048 85.8083 48.2788 82.209 44.9835 78.8154C41.6882 75.4217 37.6239 78.8154 37.6239 78.8154C37.6239 78.8154 38.5817 75.4121 37.6239 73.5706C33.7203 66.0661 18.4389 66.2206 13.6777 73.5706C10.6746 78.2064 13.6777 87.4538 13.6777 87.4538C13.6777 87.4538 6.68956 85.1242 3.68176 87.4538C0.0459484 90.2697 0.166723 98.7659 3.68176 98.7659Z" stroke="#123324" stroke-opacity="0.1"/>
<path d="M27.7462 71.8213C32.3732 71.7656 34.6716 77.5526 34.4328 78.5079" stroke="#123324" stroke-opacity="0.1"/>
<path d="M46.3733 86.8657C53.7762 83.7612 56.8806 94.5075 51.3881 96.6567C45.8956 98.806 43.2687 98.0896 41.597 98.0896" stroke="#123324" stroke-opacity="0.1"/>
<path d="M160.847 42.6816L157.516 44.0494" stroke="#123324" stroke-opacity="0.1"/>
<path d="M159.146 39.4871L154.816 41.2652" stroke="#123324" stroke-opacity="0.1"/>
<path d="M158.052 36.822L152.389 39.1473" stroke="#123324" stroke-opacity="0.1"/>
<path d="M156.821 33.8239L148.826 37.1066" stroke="#123324" stroke-opacity="0.1"/>
<path d="M154.555 27.3577L142.23 32.4185" stroke="#123324" stroke-opacity="0.1"/>
<path d="M155.923 30.689L145.596 34.9291" stroke="#123324" stroke-opacity="0.1"/>
<path d="M135.678 3.18707L136.635 5.51897" stroke="#123324" stroke-opacity="0.1"/>
<path d="M146.71 17.7322L147.394 19.3979" stroke="#123324" stroke-opacity="0.1"/>
<path d="M135.914 21.776L136.734 23.7748" stroke="#123324" stroke-opacity="0.1"/>
<path d="M162.614 50.5126L147.77 56.6074C146.722 57.0622 146.393 56.8436 146.064 55.9735L133.991 26.5706C133.492 25.4234 133.659 25.0122 134.642 24.6354L149.487 18.5406C150.51 18.0858 150.86 18.4155 151.31 19.46L163.382 48.8629C163.846 49.8845 163.547 50.1812 162.614 50.5126Z" stroke="#123324" stroke-opacity="0.1"/>
<path d="M147.523 17.008L134.963 22.1652C134.071 22.5356 133.876 22.5565 133.838 22.4046L131.826 17.5041C131.726 17.3198 131.949 17.1711 132.775 16.8365L145.335 11.6793C146.209 11.3146 146.392 11.3184 146.479 11.4875L148.492 16.3879C148.595 16.5476 148.3 16.6975 147.523 17.008Z" stroke="#123324" stroke-opacity="0.1"/>
<path d="M147.523 17.008L134.963 22.1652C134.071 22.5356 133.876 22.5565 133.838 22.4046L131.826 17.5041C131.726 17.3198 131.949 17.1711 132.775 16.8365L145.335 11.6793C146.209 11.3146 146.392 11.3184 146.479 11.4875L148.492 16.3879C148.595 16.5476 148.3 16.6975 147.523 17.008Z" stroke="#123324" stroke-opacity="0.1"/>
<path d="M133.725 16.446L133.041 14.7803C132.381 12.7947 132.81 12.0702 134.749 11.3542L135.748 10.9439L135.201 9.61135C134.589 9.92725 134.286 9.95783 133.928 9.35543L132.56 6.02415C132.288 5.09561 132.421 4.73323 133.013 4.2813C133.036 4.21894 134.942 3.41447 136.344 2.91351C137.232 2.72475 137.572 2.93505 137.89 3.83569L139.258 7.16697C139.396 7.6787 139.249 7.91809 138.532 8.24357L139.079 9.57608L140.079 9.16574C142.131 8.35036 142.902 8.66191 143.701 10.4034L144.385 12.0691" stroke="#123324" stroke-opacity="0.1"/>
<path d="M95.4327 49.5222L90.2606 50.5908" stroke="#123324" stroke-opacity="0.1"/>
<path d="M103.753 57.026L98.5812 58.0946" stroke="#123324" stroke-opacity="0.1"/>
<path d="M91.1499 65.4174L83.9055 59.115C83.4097 58.6069 83.1164 58.3272 83.7878 57.4217L89.3024 51.0828C90.0392 50.4215 90.3978 50.4937 90.9958 50.9651L98.2401 57.2675C98.8953 57.9765 98.7333 58.3327 98.3579 58.9608L92.8433 65.2997C92.2249 65.9628 91.8419 65.8118 91.1499 65.4174Z" stroke="#123324" stroke-opacity="0.1"/>
<path d="M96.1678 49.8965L96.3188 50.0278L103.412 56.1989C104.067 56.9079 103.905 57.2641 103.53 57.8923L97.7527 64.5329L92.1671 65.7721" stroke="#123324" stroke-opacity="0.1"/>
<path d="M94.5312 58.9878C93.9077 59.0312 93.3671 58.5609 93.3238 57.9374C93.2804 57.3139 93.7507 56.7734 94.3742 56.73C94.9977 56.6867 95.5382 57.157 95.5816 57.7804C95.6249 58.4039 95.1547 58.9445 94.5312 58.9878Z" stroke="#123324" stroke-opacity="0.1"/>
<path d="M91.3801 62.61C90.7566 62.6534 90.216 62.1831 90.1727 61.5596C90.1293 60.9362 90.5996 60.3956 91.2231 60.3522C91.8465 60.3089 92.3871 60.7792 92.4305 61.4027C92.4738 62.0261 92.0035 62.5667 91.3801 62.61Z" stroke="#123324" stroke-opacity="0.1"/>
<path d="M87.4561 59.1962C86.8326 59.2396 86.2921 58.7693 86.2487 58.1458C86.2054 57.5223 86.6756 56.9818 87.2991 56.9384C87.9226 56.895 88.4632 57.3653 88.5065 57.9888C88.5499 58.6123 88.0796 59.1528 87.4561 59.1962Z" stroke="#123324" stroke-opacity="0.1"/>
<path d="M90.6072 55.574C89.9838 55.6173 89.4432 55.147 89.3998 54.5236C89.3565 53.9001 89.8268 53.3595 90.4502 53.3162C91.0737 53.2728 91.6143 53.7431 91.6576 54.3666C91.701 54.9901 91.2307 55.5306 90.6072 55.574Z" stroke="#123324" stroke-opacity="0.1"/>
<path d="M96.4698 50.1591C95.7937 49.5078 95.4642 49.3549 95.0194 49.6927" stroke="#123324" stroke-opacity="0.1"/>
<path d="M176.225 110.078L192.188 94.7478" stroke="#123324" stroke-opacity="0.1"/>
<path d="M199.992 90.0939L198.839 88.893" stroke="#123324" stroke-opacity="0.1"/>
<path d="M178.875 113.393L197.753 95.2636L201.037 87.8476L193.849 91.1989L174.972 109.328C174.426 110.019 174.203 110.391 174.621 110.908L177.283 113.68C177.85 114.007 178.197 113.962 178.875 113.393Z" stroke="#123324" stroke-opacity="0.1"/>
<path d="M193.849 91.1989L193.549 92.553L194.686 92.3483L194.525 93.5692L195.662 93.3645L195.412 94.493L196.727 94.4731L196.476 95.6015L197.753 95.2636" stroke="#123324" stroke-opacity="0.1"/>
<path d="M331.013 230.702C325.977 227.792 324.653 228.691 324.828 234.56C319.694 239.225 320.892 240.762 326.316 241.638C328.066 247.114 329.507 247.452 333.131 241.784C339.654 241.558 339.569 239.808 336.057 235.229C337.461 228.823 336.389 227.788 331.013 230.702Z" stroke="#123324" stroke-opacity="0.1"/>
<path d="M228.984 155.181C223.947 152.271 222.623 153.171 222.799 159.04C217.664 163.705 218.863 165.242 224.287 166.118C226.036 171.594 227.478 171.932 231.102 166.264C237.625 166.038 237.539 164.288 234.028 159.709C235.432 153.302 234.36 152.267 228.984 155.181Z" stroke="#123324" stroke-opacity="0.1"/>
<path d="M360.929 374.09H358.302" stroke="#123324" stroke-opacity="0.1"/>
<path d="M324.685 374.766C328.2 374.766 369.392 377.543 374.225 374.766C379.058 371.989 379.149 363.81 374.225 361.191C371.428 359.703 366.866 360.574 365.987 361.191C365.108 361.808 369.282 358.209 365.987 354.815C362.692 351.422 358.627 354.815 358.627 354.815C358.627 354.815 359.585 351.412 358.627 349.571C354.724 342.066 339.442 342.221 334.681 349.571C331.678 354.206 334.681 363.454 334.681 363.454C334.681 363.454 327.693 361.124 324.685 363.454C321.049 366.27 321.17 374.766 324.685 374.766Z" stroke="#123324" stroke-opacity="0.1"/>
<path d="M348.75 347.821C353.377 347.766 355.675 353.553 355.436 354.508" stroke="#123324" stroke-opacity="0.1"/>
<path d="M367.377 362.866C374.78 359.761 377.884 370.507 372.392 372.657C366.899 374.806 364.272 374.09 362.6 374.09" stroke="#123324" stroke-opacity="0.1"/>
<path d="M544.108 283.123L540.92 284.798" stroke="#123324" stroke-opacity="0.1"/>
<path d="M542.114 280.103L537.97 282.28" stroke="#123324" stroke-opacity="0.1"/>
<path d="M540.775 277.552L535.355 280.399" stroke="#123324" stroke-opacity="0.1"/>
<path d="M539.267 274.683L531.616 278.703" stroke="#123324" stroke-opacity="0.1"/>
<path d="M536.404 268.458L524.608 274.655" stroke="#123324" stroke-opacity="0.1"/>
<path d="M538.079 271.646L528.196 276.838" stroke="#123324" stroke-opacity="0.1"/>
<path d="M515.339 246.168L516.511 248.4" stroke="#123324" stroke-opacity="0.1"/>
<path d="M527.689 259.613L528.527 261.207" stroke="#123324" stroke-opacity="0.1"/>
<path d="M517.32 264.653L518.325 266.566" stroke="#123324" stroke-opacity="0.1"/>
<path d="M546.602 290.754L532.397 298.216C531.397 298.767 531.048 298.581 530.639 297.745L515.857 269.607C515.252 268.512 515.379 268.087 516.323 267.619L530.529 260.157C531.505 259.608 531.884 259.903 532.43 260.901L547.212 289.039C547.77 290.013 547.5 290.336 546.602 290.754Z" stroke="#123324" stroke-opacity="0.1"/>
<path d="M528.43 258.815L516.41 265.13C515.557 265.582 515.365 265.621 515.313 265.474L512.849 260.784C512.732 260.61 512.94 260.441 513.731 260.03L525.751 253.716C526.587 253.271 526.77 253.257 526.873 253.417L529.336 258.107C529.454 258.256 529.175 258.433 528.43 258.815Z" stroke="#123324" stroke-opacity="0.1"/>
<path d="M528.43 258.815L516.41 265.13C515.557 265.582 515.365 265.621 515.313 265.474L512.849 260.784C512.732 260.61 512.94 260.441 513.731 260.03L525.751 253.716C526.587 253.271 526.77 253.257 526.873 253.417L529.336 258.107C529.454 258.256 529.175 258.433 528.43 258.815Z" stroke="#123324" stroke-opacity="0.1"/>
<path d="M514.641 259.552L513.803 257.958C512.959 256.043 513.319 255.282 515.181 254.387L516.138 253.884L515.468 252.609C514.888 252.981 514.59 253.04 514.176 252.474L512.502 249.286C512.143 248.387 512.242 248.014 512.788 247.508C512.805 247.444 514.628 246.464 515.976 245.834C516.843 245.562 517.201 245.74 517.603 246.606L519.277 249.794C519.463 250.291 519.339 250.543 518.656 250.934L519.326 252.21L520.282 251.707C522.249 250.703 523.045 250.94 524.005 252.599L524.842 254.193" stroke="#123324" stroke-opacity="0.1"/>
<path d="M250.613 205.915L248.49 203.006" stroke="#123324" stroke-opacity="0.1"/>
<path d="M253.31 203.501L250.55 199.719" stroke="#123324" stroke-opacity="0.1"/>
<path d="M255.637 201.803L252.029 196.858" stroke="#123324" stroke-opacity="0.1"/>
<path d="M258.255 199.893L253.161 192.911" stroke="#123324" stroke-opacity="0.1"/>
<path d="M263.995 196.15L256.141 185.387" stroke="#123324" stroke-opacity="0.1"/>
<path d="M261.086 198.273L254.505 189.255" stroke="#123324" stroke-opacity="0.1"/>
<path d="M282.966 172.053L280.93 173.539" stroke="#123324" stroke-opacity="0.1"/>
<path d="M271.472 186.236L270.017 187.298" stroke="#123324" stroke-opacity="0.1"/>
<path d="M264.97 176.715L263.225 177.989" stroke="#123324" stroke-opacity="0.1"/>
<path d="M243.429 209.498L233.971 196.535C233.279 195.627 233.413 195.254 234.179 194.728L259.855 175.992C260.85 175.233 261.289 175.297 261.89 176.163L271.349 189.125C272.034 190.01 271.798 190.429 270.89 191.115L245.215 209.85C244.333 210.544 243.974 210.325 243.429 209.498Z" stroke="#123324" stroke-opacity="0.1"/>
<path d="M272.369 186.853L264.365 175.884C263.793 175.106 263.726 174.922 263.864 174.849L268.144 171.727C268.299 171.586 268.497 171.767 269.018 172.489L277.022 183.457C277.585 184.219 277.625 184.398 277.481 184.523L273.202 187.645C273.071 187.784 272.856 187.534 272.369 186.853Z" stroke="#123324" stroke-opacity="0.1"/>
<path d="M272.369 186.853L264.365 175.884C263.793 175.106 263.726 174.922 263.864 174.849L268.144 171.727C268.299 171.586 268.497 171.767 269.018 172.489L277.022 183.457C277.585 184.219 277.625 184.398 277.481 184.523L273.202 187.645C273.071 187.784 272.856 187.534 272.369 186.853Z" stroke="#123324" stroke-opacity="0.1"/>
<path d="M269.624 173.319L271.079 172.258C272.85 171.143 273.656 171.387 274.813 173.099L275.45 173.972L276.614 173.122C276.161 172.603 276.059 172.317 276.559 171.825L279.468 169.702C280.304 169.216 280.688 169.259 281.268 169.726C281.334 169.733 282.57 171.394 283.391 172.635C283.786 173.453 283.663 173.833 282.864 174.357L279.955 176.48C279.491 176.736 279.223 176.65 278.736 176.031L277.573 176.881L278.21 177.753C279.491 179.552 279.372 180.375 277.872 181.566L276.417 182.628" stroke="#123324" stroke-opacity="0.1"/>
<path d="M420.816 251.275L417.528 255.408" stroke="#123324" stroke-opacity="0.1"/>
<path d="M432.012 251.709L428.724 255.842" stroke="#123324" stroke-opacity="0.1"/>
<path d="M427.706 266.225L418.106 266.024C417.4 265.952 416.996 265.925 416.931 264.799L417.107 256.399C417.25 255.419 417.571 255.245 418.332 255.224L427.932 255.425C428.89 255.55 428.993 255.927 429.107 256.65L428.932 265.05C428.881 265.956 428.49 266.085 427.706 266.225Z" stroke="#123324" stroke-opacity="0.1"/>
<path d="M421.62 251.091L421.82 251.095L431.22 251.292C432.178 251.417 432.281 251.794 432.395 252.517L432.211 261.317L428.715 265.846" stroke="#123324" stroke-opacity="0.1"/>
<path d="M426.186 259.122C425.735 259.554 425.018 259.539 424.586 259.088C424.153 258.637 424.168 257.921 424.619 257.488C425.07 257.056 425.787 257.071 426.219 257.522C426.652 257.973 426.637 258.689 426.186 259.122Z" stroke="#123324" stroke-opacity="0.1"/>
<path d="M426.085 263.922C425.634 264.354 424.918 264.339 424.485 263.888C424.053 263.437 424.068 262.721 424.519 262.288C424.97 261.856 425.686 261.871 426.119 262.322C426.551 262.773 426.536 263.489 426.085 263.922Z" stroke="#123324" stroke-opacity="0.1"/>
<path d="M420.885 263.813C420.434 264.245 419.718 264.23 419.285 263.779C418.853 263.328 418.868 262.612 419.319 262.179C419.77 261.747 420.486 261.762 420.919 262.213C421.351 262.664 421.336 263.38 420.885 263.813Z" stroke="#123324" stroke-opacity="0.1"/>
<path d="M420.986 259.013C420.534 259.445 419.818 259.43 419.386 258.979C418.953 258.528 418.968 257.812 419.419 257.379C419.87 256.947 420.586 256.962 421.019 257.413C421.452 257.864 421.437 258.58 420.986 259.013Z" stroke="#123324" stroke-opacity="0.1"/>
<path d="M422.02 251.1C421.084 251.032 420.733 251.126 420.608 251.67" stroke="#123324" stroke-opacity="0.1"/>
<path d="M20.5914 186.627L21.4964 191.83" stroke="#123324" stroke-opacity="0.1"/>
<path d="M28.3538 178.547L29.2587 183.75" stroke="#123324" stroke-opacity="0.1"/>
<path d="M36.3436 191.409L29.8159 198.451C29.2924 198.931 29.0036 199.215 28.1197 198.515L21.9579 192.804C21.3201 192.046 21.4036 191.69 21.8936 191.107L28.4213 184.065C29.1506 183.433 29.5016 183.606 30.1176 184.001L36.2793 189.713C36.9227 190.352 36.7597 190.73 36.3436 191.409Z" stroke="#123324" stroke-opacity="0.1"/>
<path d="M20.9886 185.904L21.1246 185.757L27.5164 178.862C28.2457 178.23 28.5966 178.403 29.2126 178.798L35.6678 184.782L36.7302 190.403" stroke="#123324" stroke-opacity="0.1"/>
<path d="M30.0238 187.827C30.0475 188.451 29.5604 188.977 28.9359 189C28.3114 189.024 27.7859 188.537 27.7622 187.912C27.7386 187.288 28.2256 186.762 28.8502 186.739C29.4747 186.715 30.0002 187.202 30.0238 187.827Z" stroke="#123324" stroke-opacity="0.1"/>
<path d="M33.545 191.09C33.5686 191.715 33.0815 192.24 32.457 192.264C31.8325 192.288 31.307 191.801 31.2833 191.176C31.2597 190.552 31.7468 190.026 32.3713 190.002C32.9958 189.979 33.5213 190.466 33.545 191.09Z" stroke="#123324" stroke-opacity="0.1"/>
<path d="M30.0091 194.905C30.0327 195.529 29.5457 196.055 28.9211 196.078C28.2966 196.102 27.7711 195.615 27.7475 194.991C27.7238 194.366 28.2109 193.841 28.8354 193.817C29.4599 193.793 29.9854 194.28 30.0091 194.905Z" stroke="#123324" stroke-opacity="0.1"/>
<path d="M26.488 191.641C26.5116 192.266 26.0245 192.791 25.4 192.815C24.7755 192.838 24.25 192.351 24.2263 191.727C24.2027 191.102 24.6898 190.577 25.3143 190.553C25.9388 190.529 26.4643 191.016 26.488 191.641Z" stroke="#123324" stroke-opacity="0.1"/>
<path d="M21.2607 185.611C20.5884 186.266 20.4252 186.59 20.7488 187.046" stroke="#123324" stroke-opacity="0.1"/>
<path d="M313.966 121.225L312.159 116.263" stroke="#123324" stroke-opacity="0.1"/>
<path d="M307.748 130.546L305.941 125.583" stroke="#123324" stroke-opacity="0.1"/>
<path d="M297.618 119.292L302.803 111.21C303.234 110.646 303.469 110.315 304.462 110.848L311.533 115.386C312.294 116.019 312.275 116.384 311.895 117.044L306.71 125.126C306.103 125.877 305.727 125.768 305.051 125.488L297.98 120.95C297.234 120.435 297.328 120.034 297.618 119.292Z" stroke="#123324" stroke-opacity="0.1"/>
<path d="M313.703 122.007L313.594 122.175L308.517 130.088C307.91 130.839 307.535 130.731 306.859 130.45L299.45 125.697L297.415 120.35" stroke="#123324" stroke-opacity="0.1"/>
<path d="M304.47 121.705C304.337 121.095 304.724 120.492 305.334 120.358C305.945 120.225 306.548 120.612 306.681 121.223C306.814 121.833 306.427 122.436 305.817 122.57C305.206 122.703 304.603 122.316 304.47 121.705Z" stroke="#123324" stroke-opacity="0.1"/>
<path d="M300.429 119.113C300.296 118.502 300.683 117.899 301.293 117.766C301.904 117.632 302.507 118.019 302.64 118.63C302.774 119.241 302.387 119.844 301.776 119.977C301.165 120.11 300.562 119.723 300.429 119.113Z" stroke="#123324" stroke-opacity="0.1"/>
<path d="M303.238 114.735C303.105 114.125 303.492 113.522 304.102 113.388C304.713 113.255 305.316 113.642 305.449 114.253C305.582 114.863 305.196 115.466 304.585 115.599C303.974 115.733 303.371 115.346 303.238 114.735Z" stroke="#123324" stroke-opacity="0.1"/>
<path d="M307.279 117.328C307.145 116.717 307.532 116.114 308.143 115.981C308.754 115.848 309.357 116.235 309.49 116.845C309.623 117.456 309.236 118.059 308.626 118.192C308.015 118.325 307.412 117.939 307.279 117.328Z" stroke="#123324" stroke-opacity="0.1"/>
<path d="M313.486 122.343C314.033 121.58 314.136 121.232 313.738 120.841" stroke="#123324" stroke-opacity="0.1"/>
<path d="M313.966 121.227L312.159 116.264" stroke="#123324" stroke-opacity="0.1"/>
<path d="M307.748 130.547L305.941 125.585" stroke="#123324" stroke-opacity="0.1"/>
<path d="M297.618 119.294L302.804 111.212C303.235 110.648 303.469 110.317 304.462 110.85L311.534 115.387C312.295 116.021 312.275 116.386 311.896 117.046L306.71 125.127C306.104 125.878 305.728 125.77 305.052 125.489L297.98 120.952C297.235 120.436 297.328 120.036 297.618 119.294Z" stroke="#123324" stroke-opacity="0.1"/>
<path d="M313.703 122.008L313.595 122.177L308.517 130.09C307.911 130.841 307.535 130.732 306.859 130.452L299.451 125.699L297.415 120.352" stroke="#123324" stroke-opacity="0.1"/>
<path d="M304.47 121.707C304.337 121.097 304.724 120.494 305.335 120.36C305.945 120.227 306.548 120.614 306.681 121.224C306.815 121.835 306.428 122.438 305.817 122.571C305.207 122.705 304.604 122.318 304.47 121.707Z" stroke="#123324" stroke-opacity="0.1"/>
<path d="M300.429 119.114C300.296 118.504 300.683 117.901 301.294 117.768C301.904 117.634 302.507 118.021 302.641 118.632C302.774 119.242 302.387 119.845 301.776 119.979C301.166 120.112 300.563 119.725 300.429 119.114Z" stroke="#123324" stroke-opacity="0.1"/>
<path d="M303.238 114.737C303.105 114.126 303.492 113.523 304.102 113.39C304.713 113.257 305.316 113.644 305.449 114.254C305.583 114.865 305.196 115.468 304.585 115.601C303.975 115.735 303.372 115.348 303.238 114.737Z" stroke="#123324" stroke-opacity="0.1"/>
<path d="M307.279 117.33C307.146 116.719 307.533 116.116 308.143 115.983C308.754 115.849 309.357 116.236 309.49 116.847C309.624 117.458 309.237 118.061 308.626 118.194C308.015 118.327 307.412 117.94 307.279 117.33Z" stroke="#123324" stroke-opacity="0.1"/>
<path d="M313.487 122.345C314.033 121.582 314.137 121.234 313.738 120.843" stroke="#123324" stroke-opacity="0.1"/>
<path d="M469.981 377.591L473.082 355.677" stroke="#123324" stroke-opacity="0.1"/>
<path d="M476.351 347.199L474.703 346.966" stroke="#123324" stroke-opacity="0.1"/>
<path d="M474.112 378.564L477.779 352.649L475.787 344.787L472.199 351.86L468.532 377.775C468.529 378.655 468.583 379.085 469.231 379.234L473.036 379.772C473.685 379.68 473.93 379.431 474.112 378.564Z" stroke="#123324" stroke-opacity="0.1"/>
<path d="M472.199 351.859L472.798 353.11L473.567 352.247L474.193 353.308L474.962 352.445L475.461 353.487L476.484 352.66L476.983 353.703L477.779 352.649" stroke="#123324" stroke-opacity="0.1"/>
<path d="M303.984 17.1812C298.947 14.2712 297.623 15.1709 297.799 21.0398C292.664 25.705 293.863 27.2421 299.287 28.1177C301.036 33.5935 302.478 33.9321 306.102 28.2639C312.625 28.0381 312.539 26.2877 309.028 21.709C310.432 15.3024 309.36 14.2672 303.984 17.1812Z" stroke="#123324" stroke-opacity="0.1"/>
<path d="M489.755 149.441C490.359 143.656 488.998 142.814 483.71 145.366C477.357 142.58 476.442 144.301 477.854 149.611C473.567 153.441 473.846 154.895 480.499 155.893C483.364 161.758 484.928 160.966 487.677 155.893C494.1 154.563 494.608 153.162 489.755 149.441Z" stroke="#123324" stroke-opacity="0.1"/>
<path d="M421.925 101.09H419.298" stroke="#123324" stroke-opacity="0.1"/>
<path d="M385.682 101.766C389.197 101.766 430.389 104.543 435.222 101.766C440.055 98.9893 440.145 90.8102 435.222 88.1913C432.425 86.7033 427.862 87.5743 426.983 88.1913C426.105 88.8083 430.279 85.209 426.983 81.8154C423.688 78.4217 419.624 81.8154 419.624 81.8154C419.624 81.8154 420.582 78.4121 419.624 76.5706C415.72 69.0661 400.439 69.2206 395.678 76.5706C392.675 81.2064 395.678 90.4538 395.678 90.4538C395.678 90.4538 388.69 88.1242 385.682 90.4538C382.046 93.2697 382.167 101.766 385.682 101.766Z" stroke="#123324" stroke-opacity="0.1"/>
<path d="M409.746 74.8213C414.373 74.7656 416.672 80.5526 416.433 81.5079" stroke="#123324" stroke-opacity="0.1"/>
<path d="M428.373 89.8657C435.776 86.7612 438.881 97.5075 433.388 99.6567C427.896 101.806 425.269 101.09 423.597 101.09" stroke="#123324" stroke-opacity="0.1"/>
<path d="M542.847 45.6816L539.516 47.0494" stroke="#123324" stroke-opacity="0.1"/>
<path d="M541.146 42.4871L536.816 44.2652" stroke="#123324" stroke-opacity="0.1"/>
<path d="M540.052 39.822L534.389 42.1473" stroke="#123324" stroke-opacity="0.1"/>
<path d="M538.821 36.8239L530.826 40.1066" stroke="#123324" stroke-opacity="0.1"/>
<path d="M536.555 30.3577L524.23 35.4185" stroke="#123324" stroke-opacity="0.1"/>
<path d="M537.923 33.689L527.596 37.9291" stroke="#123324" stroke-opacity="0.1"/>
<path d="M517.678 6.18707L518.635 8.51897" stroke="#123324" stroke-opacity="0.1"/>
<path d="M528.71 20.7322L529.394 22.3979" stroke="#123324" stroke-opacity="0.1"/>
<path d="M517.914 24.776L518.734 26.7748" stroke="#123324" stroke-opacity="0.1"/>
<path d="M544.614 53.5126L529.77 59.6074C528.722 60.0622 528.393 59.8436 528.064 58.9735L515.991 29.5706C515.492 28.4234 515.659 28.0122 516.642 27.6354L531.487 21.5406C532.51 21.0858 532.86 21.4155 533.31 22.46L545.382 51.8629C545.846 52.8845 545.547 53.1812 544.614 53.5126Z" stroke="#123324" stroke-opacity="0.1"/>
<path d="M529.523 20.008L516.963 25.1652C516.071 25.5356 515.876 25.5565 515.838 25.4046L513.826 20.5041C513.726 20.3198 513.949 20.1711 514.775 19.8365L527.335 14.6793C528.209 14.3146 528.392 14.3184 528.479 14.4875L530.492 19.3879C530.595 19.5476 530.3 19.6975 529.523 20.008Z" stroke="#123324" stroke-opacity="0.1"/>
<path d="M529.523 20.008L516.963 25.1652C516.071 25.5356 515.876 25.5565 515.838 25.4046L513.826 20.5041C513.726 20.3198 513.949 20.1711 514.775 19.8365L527.335 14.6793C528.209 14.3146 528.392 14.3184 528.479 14.4875L530.492 19.3879C530.595 19.5476 530.3 19.6975 529.523 20.008Z" stroke="#123324" stroke-opacity="0.1"/>
<path d="M515.725 19.446L515.041 17.7803C514.381 15.7947 514.81 15.0702 516.749 14.3542L517.748 13.9439L517.201 12.6114C516.589 12.9273 516.286 12.9578 515.928 12.3554L514.56 9.02415C514.288 8.09561 514.421 7.73323 515.013 7.2813C515.036 7.21894 516.942 6.41447 518.344 5.91351C519.232 5.72475 519.572 5.93505 519.89 6.83569L521.258 10.167C521.396 10.6787 521.249 10.9181 520.532 11.2436L521.079 12.5761L522.079 12.1657C524.131 11.3504 524.902 11.6619 525.701 13.4034L526.385 15.0691" stroke="#123324" stroke-opacity="0.1"/>
<path d="M477.433 52.5222L472.261 53.5908" stroke="#123324" stroke-opacity="0.1"/>
<path d="M485.753 60.026L480.581 61.0946" stroke="#123324" stroke-opacity="0.1"/>
<path d="M473.15 68.4174L465.906 62.115C465.41 61.6069 465.116 61.3272 465.788 60.4217L471.302 54.0828C472.039 53.4215 472.398 53.4937 472.996 53.9651L480.24 60.2675C480.895 60.9765 480.733 61.3327 480.358 61.9608L474.843 68.2997C474.225 68.9628 473.842 68.8118 473.15 68.4174Z" stroke="#123324" stroke-opacity="0.1"/>
<path d="M478.168 52.8965L478.319 53.0278L485.412 59.1989C486.067 59.9079 485.905 60.2641 485.53 60.8923L479.753 67.5329L474.167 68.7721" stroke="#123324" stroke-opacity="0.1"/>
<path d="M476.531 61.9878C475.908 62.0312 475.367 61.5609 475.324 60.9374C475.28 60.3139 475.751 59.7734 476.374 59.73C476.998 59.6867 477.538 60.157 477.582 60.7804C477.625 61.4039 477.155 61.9445 476.531 61.9878Z" stroke="#123324" stroke-opacity="0.1"/>
<path d="M473.38 65.61C472.757 65.6534 472.216 65.1831 472.173 64.5596C472.129 63.9362 472.6 63.3956 473.223 63.3522C473.847 63.3089 474.387 63.7792 474.43 64.4027C474.474 65.0261 474.004 65.5667 473.38 65.61Z" stroke="#123324" stroke-opacity="0.1"/>
<path d="M469.456 62.1962C468.833 62.2396 468.292 61.7693 468.249 61.1458C468.205 60.5223 468.676 59.9818 469.299 59.9384C469.923 59.895 470.463 60.3653 470.507 60.9888C470.55 61.6123 470.08 62.1528 469.456 62.1962Z" stroke="#123324" stroke-opacity="0.1"/>
<path d="M472.607 58.574C471.984 58.6173 471.443 58.147 471.4 57.5236C471.356 56.9001 471.827 56.3595 472.45 56.3162C473.074 56.2728 473.614 56.7431 473.658 57.3666C473.701 57.9901 473.231 58.5306 472.607 58.574Z" stroke="#123324" stroke-opacity="0.1"/>
<path d="M478.47 53.1591C477.794 52.5078 477.464 52.3549 477.019 52.6927" stroke="#123324" stroke-opacity="0.1"/>
<path d="M585.263 97.2025L565.579 107.319" stroke="#123324" stroke-opacity="0.1"/>
<path d="M556.768 109.543L557.529 111.024" stroke="#123324" stroke-opacity="0.1"/>
<path d="M583.673 93.2673L560.394 105.231L555.124 111.396L562.971 110.244L586.249 98.2797C586.97 97.7745 587.29 97.4816 587.038 96.8665L585.281 93.4489C584.831 92.9725 584.486 92.9163 583.673 93.2673Z" stroke="#123324" stroke-opacity="0.1"/>
<path d="M562.971 110.244L563.646 109.032L562.498 108.903L563.002 107.779L561.854 107.65L562.417 106.64L561.151 106.283L561.714 105.273L560.394 105.231" stroke="#123324" stroke-opacity="0.1"/>
<path d="M107.755 399.441C108.359 393.656 106.998 392.814 101.71 395.366C95.3571 392.58 94.4423 394.301 95.8539 399.611C91.5671 403.441 91.8455 404.895 98.4986 405.893C101.364 411.758 102.928 410.966 105.677 405.893C112.1 404.563 112.608 403.162 107.755 399.441Z" stroke="#123324" stroke-opacity="0.1"/>
<path d="M39.9253 351.09H37.2985" stroke="#123324" stroke-opacity="0.1"/>
<path d="M3.68176 351.766C7.19679 351.766 48.3887 354.543 53.2219 351.766C58.055 348.989 58.1451 340.81 53.2219 338.191C50.4246 336.703 45.8622 337.574 44.9835 338.191C44.1048 338.808 48.2788 335.209 44.9835 331.815C41.6882 328.422 37.6239 331.815 37.6239 331.815C37.6239 331.815 38.5817 328.412 37.6239 326.571C33.7203 319.066 18.4389 319.221 13.6777 326.571C10.6746 331.207 13.6777 340.454 13.6777 340.454C13.6777 340.454 6.68956 338.124 3.68176 340.454C0.0459484 343.27 0.166723 351.766 3.68176 351.766Z" stroke="#123324" stroke-opacity="0.1"/>
<path d="M27.7462 324.821C32.3732 324.766 34.6716 330.553 34.4328 331.508" stroke="#123324" stroke-opacity="0.1"/>
<path d="M46.3733 339.866C53.7762 336.761 56.8806 347.508 51.3881 349.657C45.8956 351.806 43.2687 351.09 41.597 351.09" stroke="#123324" stroke-opacity="0.1"/>
<path d="M148.268 302.577L144.825 301.519" stroke="#123324" stroke-opacity="0.1"/>
<path d="M148.981 299.029L144.506 297.654" stroke="#123324" stroke-opacity="0.1"/>
<path d="M149.827 296.275L143.975 294.477" stroke="#123324" stroke-opacity="0.1"/>
<path d="M150.779 293.176L142.517 290.639" stroke="#123324" stroke-opacity="0.1"/>
<path d="M153.132 286.742L140.395 282.829" stroke="#123324" stroke-opacity="0.1"/>
<path d="M152.074 290.184L141.403 286.906" stroke="#123324" stroke-opacity="0.1"/>
<path d="M153.885 256.082L153.144 258.491" stroke="#123324" stroke-opacity="0.1"/>
<path d="M153.179 274.324L152.65 276.045" stroke="#123324" stroke-opacity="0.1"/>
<path d="M142.269 270.596L141.634 272.662" stroke="#123324" stroke-opacity="0.1"/>
<path d="M144.663 309.749L129.323 305.038C128.225 304.725 128.109 304.346 128.408 303.465L137.74 273.082C138.082 271.878 138.472 271.666 139.472 271.999L154.811 276.711C155.89 277.009 155.951 277.486 155.636 278.578L146.303 308.962C146.013 310.046 145.594 310.086 144.663 309.749Z" stroke="#123324" stroke-opacity="0.1"/>
<path d="M154.266 274.28L141.287 270.294C140.362 270.014 140.199 269.906 140.266 269.765L141.821 264.701C141.861 264.495 142.128 264.521 142.978 264.787L155.958 268.774C156.865 269.047 157.004 269.166 156.964 269.352L155.408 274.416C155.387 274.605 155.064 274.534 154.266 274.28Z" stroke="#123324" stroke-opacity="0.1"/>
<path d="M154.266 274.28L141.287 270.294C140.362 270.014 140.199 269.906 140.266 269.765L141.821 264.701C141.861 264.495 142.128 264.521 142.978 264.787L155.958 268.774C156.865 269.047 157.004 269.166 156.964 269.352L155.408 274.416C155.387 274.605 155.064 274.534 154.266 274.28Z" stroke="#123324" stroke-opacity="0.1"/>
<path d="M143.96 265.089L144.489 263.367C145.239 261.414 146.031 261.126 147.983 261.804L149.016 262.121L149.439 260.744C148.765 260.599 148.512 260.431 148.618 259.738L149.675 256.296C150.054 255.405 150.387 255.21 151.131 255.236C151.188 255.202 153.172 255.791 154.573 256.293C155.379 256.711 155.509 257.089 155.183 257.987L154.125 261.43C153.907 261.913 153.642 262.005 152.881 261.801L152.458 263.178L153.491 263.495C155.595 264.168 155.992 264.898 155.505 266.751L154.976 268.472" stroke="#123324" stroke-opacity="0.1"/>
<path d="M95.4327 302.522L90.2606 303.591" stroke="#123324" stroke-opacity="0.1"/>
<path d="M103.753 310.026L98.5812 311.095" stroke="#123324" stroke-opacity="0.1"/>
<path d="M91.1499 318.417L83.9055 312.115C83.4097 311.607 83.1164 311.327 83.7878 310.422L89.3024 304.083C90.0392 303.422 90.3978 303.494 90.9958 303.965L98.2401 310.268C98.8953 310.977 98.7333 311.333 98.3579 311.961L92.8433 318.3C92.2249 318.963 91.8419 318.812 91.1499 318.417Z" stroke="#123324" stroke-opacity="0.1"/>
<path d="M96.1678 302.897L96.3188 303.028L103.412 309.199C104.067 309.908 103.905 310.264 103.53 310.892L97.7527 317.533L92.1671 318.772" stroke="#123324" stroke-opacity="0.1"/>
<path d="M94.5312 311.988C93.9077 312.031 93.3671 311.561 93.3238 310.937C93.2804 310.314 93.7507 309.773 94.3742 309.73C94.9977 309.687 95.5382 310.157 95.5816 310.78C95.6249 311.404 95.1547 311.945 94.5312 311.988Z" stroke="#123324" stroke-opacity="0.1"/>
<path d="M91.3801 315.61C90.7566 315.653 90.216 315.183 90.1727 314.56C90.1293 313.936 90.5996 313.396 91.2231 313.352C91.8465 313.309 92.3871 313.779 92.4305 314.403C92.4738 315.026 92.0035 315.567 91.3801 315.61Z" stroke="#123324" stroke-opacity="0.1"/>
<path d="M87.4561 312.196C86.8326 312.24 86.2921 311.769 86.2487 311.146C86.2054 310.522 86.6756 309.982 87.2991 309.938C87.9226 309.895 88.4632 310.365 88.5065 310.989C88.5499 311.612 88.0796 312.153 87.4561 312.196Z" stroke="#123324" stroke-opacity="0.1"/>
<path d="M90.6072 308.574C89.9838 308.617 89.4432 308.147 89.3998 307.524C89.3565 306.9 89.8268 306.36 90.4502 306.316C91.0737 306.273 91.6143 306.743 91.6576 307.367C91.701 307.99 91.2307 308.531 90.6072 308.574Z" stroke="#123324" stroke-opacity="0.1"/>
<path d="M96.4698 303.159C95.7937 302.508 95.4642 302.355 95.0194 302.693" stroke="#123324" stroke-opacity="0.1"/>
<path d="M198.371 365.622L183.205 349.503" stroke="#123324" stroke-opacity="0.1"/>
<path d="M178.631 341.652L177.418 342.793" stroke="#123324" stroke-opacity="0.1"/>
<path d="M201.713 363.006L183.778 343.944L176.396 340.584L179.673 347.806L197.609 366.868C198.294 367.421 198.663 367.647 199.185 367.234L201.983 364.601C202.317 364.037 202.275 363.69 201.713 363.006Z" stroke="#123324" stroke-opacity="0.1"/>
<path d="M179.673 347.806L181.024 348.12L180.831 346.98L182.05 347.155L181.857 346.015L182.983 346.277L182.977 344.962L184.102 345.224L183.778 343.944" stroke="#123324" stroke-opacity="0.1"/>
</svg>
